<svg width="96" height="20" fill="none" xmlns="http://www.w3.org/2000/svg"><path d="M95.83 14.829V17.2h-1.993c-2.127-.067-3.263-1.213-3.263-3.367V8.415h-1.391v-2.08h1.391v-2.33h2.94V6.31h2.249v2.075h-2.248v5.157c0 .698.14 1.256 1.215 1.256l1.1.03zM77.462 11.79v-.159a5.303 5.303 0 013.066-5.054 5.322 5.322 0 012.02-.491h.425c2.777 0 5.213 1.614 5.213 5.46v.82H80.47c.079 1.771 1.039 2.772 2.655 2.772 1.391 0 2.041-.607 2.23-1.492h2.776c-.34 2.311-2.187 3.598-5.11 3.598-3.208-.025-5.559-2.051-5.559-5.455zm7.832-1.281c-.103-1.614-.918-2.39-2.333-2.39-1.416 0-2.23.873-2.43 2.39h4.763zM65.456 11.79v-.159a5.303 5.303 0 013.058-5.05 5.323 5.323 0 012.016-.495h.425c2.777 0 5.22 1.614 5.22 5.46v.82h-7.711c.079 1.771 1.039 2.772 2.655 2.772 1.391 0 2.041-.607 2.23-1.492h2.777c-.347 2.311-2.194 3.598-5.116 3.598-3.202-.025-5.554-2.051-5.554-5.455zm7.832-1.281c-.103-1.614-.917-2.39-2.333-2.39-1.416 0-2.206.897-2.43 2.384l4.763.006zM48.607 6.31h3.111l1.902 7.196 2.084-7.196h2.43l1.884 7.196 2.005-7.196h2.85L61.494 17h-2.916l-1.823-6.71-1.95 6.71h-2.953L48.607 6.31zm-9.885 7.33H41.5c.127.964.607 1.516 1.883 1.516 1.143 0 1.671-.43 1.671-1.165 0-.734-.607-1.043-2.163-1.262-2.85-.43-3.95-1.25-3.95-3.337 0-2.226 2.042-3.33 4.254-3.33 2.376 0 4.168.86 4.423 3.318h-2.74a1.444 1.444 0 00-1.586-1.304h-.09c-.96 0-1.52.449-1.52 1.104s.517.94 2.084 1.165c2.661.4 4.15 1.074 4.15 3.361 0 2.288-1.683 3.513-4.502 3.513-2.82 0-4.612-1.268-4.69-3.58zm-11.8-7.33h2.941v1.693a3.68 3.68 0 013.47-1.942c2.084 0 3.596 1.268 3.596 4.162v6.802h-2.904v-6.377c0-1.45-.565-2.142-1.877-2.142a2.118 2.118 0 00-2.063 1.136 2.11 2.11 0 00-.228.794 1.67 1.67 0 000 .388v6.177h-2.935V6.31zm-5.674-2.688a1.479 1.479 0 011.719-1.515 1.483 1.483 0 011.15 1.981 1.481 1.481 0 01-1.338.96h-.055a1.387 1.387 0 01-1.476-1.426zm0 2.688h2.97v10.691H21.26l-.012-10.69zM10.05 2.39h9.393v2.591h-6.076v3.865h4.812v2.494h-4.818v5.661H10.05V2.391zM4.38 7.172c0 .916 0 2.032-1.263 2.487 1.294.443 1.264 1.384 1.264 2.367v3.64c0 .692.28 1.11.777 1.213.11.037.225.054.34.05h1.216v2.426H4.709c-2.139 0-3.318-1.213-3.318-3.464v-4.308a.885.885 0 00-.868-.825H0v-2.13h.523a.882.882 0 00.868-.85V3.41C1.391 1.195 2.546 0 4.71 0h2.023v2.39H5.517c-.116 0-.23.02-.34.055-.499.128-.778.54-.778 1.214l-.018 3.513z" fill="#FFB577"/><clipPath id="clip0_202_4"><path fill="#fff" d="M0 0h96v19.416H0z"/></clipPath></svg>